<mxfile host="app.diagrams.net" modified="2021-03-08T11:14:45.242Z" agent="5.0 (Windows NT 10.0; Win64; x64) AppleWebKit/537.36 (KHTML, like Gecko) Chrome/88.0.4324.190 Safari/537.36" etag="sMl_E37fZcGOQMZMMdvN" version="14.4.4" type="github">
  <diagram id="C5RBs43oDa-KdzZeNtuy" name="Page-1">
    <mxGraphModel dx="1038" dy="548" grid="1" gridSize="10" guides="1" tooltips="1" connect="1" arrows="1" fold="1" page="1" pageScale="1" pageWidth="827" pageHeight="1169" math="0" shadow="0">
      <root>
        <mxCell id="WIyWlLk6GJQsqaUBKTNV-0" />
        <mxCell id="WIyWlLk6GJQsqaUBKTNV-1" parent="WIyWlLk6GJQsqaUBKTNV-0" />
        <mxCell id="xfTpq5opTUSksuWAv6uG-0" style="edgeStyle=orthogonalEdgeStyle;curved=0;rounded=1;sketch=0;orthogonalLoop=1;jettySize=auto;html=1;exitX=1;exitY=0.5;exitDx=0;exitDy=0;entryX=0;entryY=0.5;entryDx=0;entryDy=0;" edge="1" parent="WIyWlLk6GJQsqaUBKTNV-1" source="2p2Xl5QN_kJqbLYliEAD-0" target="2p2Xl5QN_kJqbLYliEAD-1">
          <mxGeometry relative="1" as="geometry" />
        </mxCell>
        <mxCell id="2p2Xl5QN_kJqbLYliEAD-0" value="&lt;font style=&quot;font-size: 24px&quot;&gt;Begin (2/3/2021)&lt;/font&gt;" style="ellipse;whiteSpace=wrap;html=1;" parent="WIyWlLk6GJQsqaUBKTNV-1" vertex="1">
          <mxGeometry width="160" height="120" as="geometry" />
        </mxCell>
        <mxCell id="xfTpq5opTUSksuWAv6uG-3" style="edgeStyle=orthogonalEdgeStyle;curved=0;rounded=1;sketch=0;orthogonalLoop=1;jettySize=auto;html=1;exitX=1;exitY=0.5;exitDx=0;exitDy=0;entryX=0;entryY=0.5;entryDx=0;entryDy=0;" edge="1" parent="WIyWlLk6GJQsqaUBKTNV-1" source="2p2Xl5QN_kJqbLYliEAD-1" target="xfTpq5opTUSksuWAv6uG-1">
          <mxGeometry relative="1" as="geometry" />
        </mxCell>
        <mxCell id="2p2Xl5QN_kJqbLYliEAD-1" value="&lt;font style=&quot;font-size: 14px&quot;&gt;Nắm cấu tạo của một quadcopter với mẫu &lt;b&gt;D6HW&lt;/b&gt;&lt;br&gt;Làm quen với vẽ AutoCad 2D cơ bản&lt;br&gt;(13/3/2021)&lt;br&gt;&lt;/font&gt;" style="rounded=0;whiteSpace=wrap;html=1;" parent="WIyWlLk6GJQsqaUBKTNV-1" vertex="1">
          <mxGeometry x="240" width="220" height="120" as="geometry" />
        </mxCell>
        <mxCell id="xfTpq5opTUSksuWAv6uG-1" value="&lt;font style=&quot;font-size: 14px&quot;&gt;Tập bay Quacopter mẫu D6HW &lt;b&gt;theo quỹ đạo&lt;/b&gt; sân vận động&lt;br&gt;Nghiên cứu hình dáng khung của D6HW, &lt;b&gt;dựng lại khung hình 2D&lt;/b&gt;&lt;br&gt;(14/3/2021)&lt;/font&gt;" style="rounded=0;whiteSpace=wrap;html=1;sketch=0;" vertex="1" parent="WIyWlLk6GJQsqaUBKTNV-1">
          <mxGeometry x="540" width="220" height="120" as="geometry" />
        </mxCell>
        <mxCell id="xfTpq5opTUSksuWAv6uG-4" value="" style="rounded=0;whiteSpace=wrap;html=1;sketch=0;" vertex="1" parent="WIyWlLk6GJQsqaUBKTNV-1">
          <mxGeometry x="540" y="180" width="220" height="120" as="geometry" />
        </mxCell>
      </root>
    </mxGraphModel>
  </diagram>
</mxfile>
